<svg width="200" height="200" viewBox="0 0 200 200" fill="none" xmlns="http://www.w3.org/2000/svg">
  <rect width="200" height="200" fill="#f3f4f6"/>
  <path d="M100 70C88.9543 70 80 78.9543 80 90C80 101.046 88.9543 110 100 110C111.046 110 120 101.046 120 90C120 78.9543 111.046 70 100 70ZM100 105C92.268 105 85 97.732 85 90C85 82.268 92.268 75 100 75C107.732 75 115 82.268 115 90C115 97.732 107.732 105 100 105Z" fill="#9ca3af"/>
  <path d="M100 40C75.1472 40 55 60.1472 55 85V95C55 119.853 75.1472 140 100 140C124.853 140 145 119.853 145 95V85C145 60.1472 124.853 40 100 40ZM100 135C77.9086 135 60 117.091 60 95V85C60 62.9086 77.9086 45 100 45C122.091 45 140 62.9086 140 85V95C140 117.091 122.091 135 100 135Z" fill="#9ca3af"/>
  <text x="100" y="180" text-anchor="middle" font-family="Arial, sans-serif" font-size="12" fill="#6b7280">Image not available</text>
</svg> 