<svg width="35" height="33" viewBox="0 0 35 33" fill="none" xmlns="http://www.w3.org/2000/svg">
<path d="M29.5312 0L5.46875 0C2.44844 0 0 2.30853 0 5.15625L0 27.8438C0 30.6915 2.44844 33 5.46875 33H29.5312C32.5516 33 35 30.6915 35 27.8438V5.15625C35 2.30853 32.5516 0 29.5312 0Z" fill="#231E1B"/>
<path fill-rule="evenodd" clip-rule="evenodd" d="M16.4748 8.448C11.9335 8.448 8.25 12.1315 8.25 16.6728C8.25 20.3058 10.6216 23.3838 13.8509 24.4939C14.2546 24.5443 14.406 24.292 14.406 24.0902C14.406 23.8884 14.406 23.3838 14.406 22.6774C12.1353 23.1819 11.6307 21.5673 11.6307 21.5673C11.2775 20.6085 10.7225 20.3563 10.7225 20.3563C9.9656 19.8517 10.7729 19.8517 10.7729 19.8517C11.5803 19.9021 12.0344 20.7095 12.0344 20.7095C12.7913 21.9709 13.9518 21.6177 14.406 21.4159C14.4564 20.8608 14.7087 20.5076 14.9106 20.3058C13.094 20.104 11.1766 19.3975 11.1766 16.2186C11.1766 15.3104 11.4794 14.604 12.0344 13.9985C11.9839 13.8471 11.6812 12.9893 12.1353 11.8792C12.1353 11.8792 12.8417 11.6774 14.406 12.737C15.0619 12.5352 15.7683 12.4847 16.4748 12.4847C17.1812 12.4847 17.8876 12.5856 18.5436 12.737C20.1078 11.6774 20.8142 11.8792 20.8142 11.8792C21.2683 12.9893 20.9656 13.8471 20.9151 14.0489C21.4197 14.604 21.7729 15.3608 21.7729 16.2691C21.7729 19.448 19.8555 20.104 18.039 20.3058C18.3417 20.5581 18.594 21.0627 18.594 21.8196C18.594 22.9297 18.594 23.7874 18.594 24.0902C18.594 24.292 18.7454 24.5443 19.1491 24.4939C22.4289 23.3838 24.75 20.3058 24.75 16.6728C24.6995 12.1315 21.0161 8.448 16.4748 8.448Z" fill="white"/>
</svg>
