<svg width="33" height="33" viewBox="0 0 33 33" fill="none" xmlns="http://www.w3.org/2000/svg">
<path d="M27.8438 0L5.15625 0C2.30853 0 0 2.30853 0 5.15625L0 27.8438C0 30.6915 2.30853 33 5.15625 33H27.8438C30.6915 33 33 30.6915 33 27.8438V5.15625C33 2.30853 30.6915 0 27.8438 0Z" fill="#2867B2"/>
<path d="M11.9625 24.75H8.45625V13.7156H11.9625V24.75ZM10.2094 12.1688C9.075 12.1688 8.25 11.3437 8.25 10.2094C8.25 9.075 9.17813 8.25 10.2094 8.25C11.3438 8.25 12.1688 9.075 12.1688 10.2094C12.1688 11.3437 11.3438 12.1688 10.2094 12.1688ZM24.75 24.75H21.2438V18.7688C21.2438 17.0156 20.5219 16.5 19.4906 16.5C18.4594 16.5 17.4281 17.325 17.4281 18.8719V24.75H13.9219V13.7156H17.2219V15.2625C17.5312 14.5406 18.7687 13.4062 20.5219 13.4062C22.4812 13.4062 24.5438 14.5406 24.5438 17.9437V24.75H24.75Z" fill="white"/>
</svg>
